<?xml version="1.0" standalone="no"?>
<!DOCTYPE svg PUBLIC "-//W3C//DTD SVG 20010904//EN"
 "http://www.w3.org/TR/2001/REC-SVG-20010904/DTD/svg10.dtd">
<svg version="1.0" xmlns="http://www.w3.org/2000/svg"
 width="360.000000pt" height="360.000000pt" viewBox="0 0 360.000000 360.000000"
 preserveAspectRatio="xMidYMid meet">
<metadata>
Created by potrace 1.11, written by Peter Selinger 2001-2013
</metadata>
<g transform="translate(0.000000,360.000000) scale(0.100000,-0.100000)"
fill="#000000" stroke="none">
<path d="M0 1800 l0 -1800 125 0 c119 0 154 9 102 26 -12 5 -25 7 -29 6 -5 -1
-8 5 -8 13 0 9 -9 15 -23 15 -13 0 -32 10 -43 22 -12 14 -14 19 -4 13 12 -6
12 -5 3 5 -9 10 -7 19 9 40 16 22 19 37 14 67 -4 21 -3 33 1 27 4 -6 23 -16
41 -22 l34 -12 -25 43 c-31 52 -40 113 -16 109 10 -1 21 10 29 29 13 29 14 30
27 13 18 -25 16 -8 -3 21 -16 25 -10 68 21 145 8 19 19 53 24 76 13 51 65 111
127 148 27 16 64 48 81 71 20 27 61 60 110 88 43 25 112 70 153 100 45 34 97
62 130 72 203 60 251 83 301 145 42 51 137 120 165 120 7 0 16 -9 19 -20 4
-12 24 -32 46 -46 35 -22 39 -29 39 -64 0 -55 27 -211 50 -290 17 -58 25 -70
75 -108 36 -28 53 -37 49 -25 -12 36 -59 123 -66 123 -5 0 -8 7 -8 15 0 8 -4
15 -10 15 -11 0 -32 69 -24 81 2 5 -2 25 -11 45 -17 41 -19 56 -5 34 8 -13 10
-12 10 3 0 14 5 17 23 11 21 -6 30 -16 27 -30 -1 -3 9 -15 22 -26 13 -11 24
-30 25 -42 5 -65 76 -156 122 -156 18 0 13 27 -6 34 -14 6 -15 9 -4 15 9 6 7
10 -8 14 -13 3 -21 13 -21 26 0 12 -4 21 -8 21 -5 0 -9 7 -9 15 0 8 4 12 9 9
4 -3 20 4 33 14 l26 20 -31 22 c-35 25 -70 87 -70 125 0 14 -6 25 -12 25 -10
0 -9 3 1 9 11 7 11 9 0 14 -9 3 -7 6 6 6 15 1 17 3 6 10 -12 8 65 22 139 26
14 0 32 5 40 10 13 8 13 7 1 -8 -12 -15 -10 -18 18 -23 17 -4 28 -10 26 -14
-3 -5 -14 -6 -25 -3 -11 3 -20 0 -20 -6 0 -5 7 -8 15 -5 8 4 15 1 15 -6 0 -6
4 -8 10 -5 5 3 10 0 10 -7 0 -10 3 -9 9 2 6 8 7 18 5 22 -3 4 4 8 15 8 12 0
21 -5 21 -12 0 -6 3 -8 6 -5 4 4 2 12 -4 20 -7 8 -7 18 -2 27 9 13 10 13 10 0
1 -12 4 -11 15 4 8 10 12 24 8 30 -3 6 -3 8 2 4 4 -4 17 -3 29 3 17 9 17 7 -4
-11 -26 -23 -23 -23 22 -1 15 8 25 18 22 23 -3 4 0 8 5 8 15 0 14 -23 -1 -39
-11 -10 -9 -12 6 -9 15 2 20 11 20 38 1 33 23 71 37 64 4 -2 9 5 12 16 3 12
11 18 19 15 8 -3 26 8 41 25 15 16 32 31 37 31 6 1 16 2 23 3 6 1 17 -3 22 -8
11 -9 12 -80 1 -108 -14 -40 -15 -48 -6 -48 15 0 12 -32 -6 -51 -12 -13 -12
-19 -3 -25 8 -4 10 -3 5 4 -4 7 -3 12 2 12 15 0 89 178 103 248 l13 62 51 -49
50 -48 67 4 c87 7 147 -14 252 -85 44 -30 107 -72 138 -94 32 -21 74 -56 95
-77 75 -77 113 -120 114 -128 0 -4 2 -16 4 -26 3 -17 2 -17 -20 -3 -22 14 -22
14 -11 -9 6 -13 15 -21 20 -18 5 4 6 1 1 -6 -5 -9 -11 -9 -17 -3 -6 6 -16 8
-23 6 -7 -3 -16 0 -21 7 -4 8 -3 10 4 5 17 -10 15 9 -2 24 -13 10 -15 7 -13
-16 2 -30 21 -40 112 -64 22 -5 64 -28 93 -50 40 -31 50 -35 41 -18 -10 18 -3
15 37 -14 27 -19 59 -38 70 -42 12 -4 30 -16 40 -27 15 -17 12 -17 -27 5 -44
24 -125 44 -115 28 3 -5 19 -9 35 -10 16 0 38 -5 49 -11 21 -11 37 -51 20 -51
-5 0 -6 -9 -3 -20 5 -17 1 -21 -25 -27 -23 -4 -28 -8 -18 -14 11 -7 10 -11 -1
-18 -11 -7 -4 -12 28 -21 45 -12 47 -30 3 -30 l-26 0 22 -16 c13 -9 22 -25 22
-42 0 -22 -2 -24 -11 -12 -9 12 -9 11 -4 -5 4 -11 9 -36 12 -55 2 -19 8 -50
13 -68 5 -19 5 -30 -1 -27 -12 8 -11 -7 1 -40 5 -14 6 -24 2 -21 -5 3 -9 -7
-10 -22 -4 -70 -7 -77 -32 -83 -24 -5 -23 -6 15 -23 42 -18 55 -31 55 -57 0
-14 -8 -26 -49 -75 -6 -7 -16 -14 -23 -16 -7 -3 -13 -21 -13 -43 0 -53 -31
-61 -98 -28 -26 13 -52 21 -57 18 -6 -4 -10 -1 -10 5 0 6 -6 10 -12 9 -7 -1
-25 4 -41 11 -37 18 -42 9 -18 -34 11 -19 18 -43 15 -51 -5 -13 23 -15 230
-15 l236 0 0 1800 0 1800 -1800 0 -1800 0 0 -1800z m1737 998 c2 6 9 10 14 6
5 -3 18 -7 29 -9 11 -2 28 -11 37 -20 12 -12 18 -13 23 -4 6 8 11 6 19 -9 13
-24 15 -43 2 -23 -6 9 -11 10 -15 2 -8 -13 5 -18 55 -23 25 -3 35 0 32 8 -2 7
0 15 6 19 7 3 8 0 5 -9 -3 -9 -1 -16 5 -16 6 0 8 -7 5 -15 -3 -8 1 -29 10 -46
19 -37 20 -42 6 -34 -14 9 -12 -29 2 -43 8 -8 8 -12 1 -12 -6 0 -10 -8 -9 -17
1 -14 -6 -17 -27 -16 -15 1 -25 -2 -23 -6 3 -4 -6 -6 -19 -3 -15 2 -25 0 -25
-7 0 -7 -6 -9 -12 -6 -7 4 -4 -1 6 -9 11 -9 16 -16 12 -16 -5 0 4 -10 20 -22
46 -34 47 -36 17 -30 -15 3 -41 14 -57 25 -27 19 -28 19 -18 1 6 -11 19 -28
31 -38 11 -10 18 -23 15 -27 -3 -5 0 -9 6 -9 6 0 26 -16 46 -35 19 -19 32 -35
28 -35 -4 0 5 -9 19 -20 14 -11 32 -20 41 -20 17 0 33 -50 30 -95 -1 -20 -6
-29 -15 -27 -8 2 -11 0 -6 -4 4 -4 0 -18 -8 -30 -13 -21 -13 -23 0 -18 8 4 15
10 15 16 0 5 5 6 11 3 6 -4 8 -13 5 -21 -3 -8 -1 -14 4 -14 6 0 10 -7 10 -16
0 -9 -5 -12 -12 -8 -6 4 -4 -3 5 -17 19 -26 22 -43 7 -34 -5 3 -11 0 -11 -7
-1 -7 -2 -20 -3 -28 -1 -8 2 -27 6 -42 4 -17 3 -28 -4 -28 -6 0 -8 -9 -5 -19
3 -13 0 -18 -8 -15 -16 6 -27 -43 -11 -50 8 -3 8 -7 0 -13 -6 -4 -10 -17 -8
-27 4 -27 -14 -56 -30 -50 -9 3 -17 -3 -21 -16 -4 -13 -12 -19 -21 -16 -8 3
-14 2 -14 -2 -1 -4 -3 -25 -6 -47 -4 -29 -2 -36 5 -25 6 8 11 11 11 7 0 -18
-44 -65 -56 -60 -8 3 -14 0 -14 -7 0 -8 -8 -10 -22 -7 -28 8 -48 -9 -48 -39 0
-13 -4 -24 -9 -24 -6 0 -8 9 -6 19 3 14 -1 18 -11 14 -23 -9 -35 -38 -21 -53
10 -10 8 -10 -11 0 -22 11 -23 10 -13 -9 17 -30 13 -39 -14 -36 -14 1 -25 -1
-25 -4 0 -4 -15 -8 -32 -9 -18 -2 -37 -8 -43 -14 -7 -7 -2 -9 18 -6 22 4 25 3
16 -9 -7 -7 -20 -11 -31 -7 -10 3 -26 0 -35 -8 -10 -7 -14 -8 -10 -1 4 6 4 18
1 26 -4 12 -11 13 -35 5 -22 -7 -33 -7 -44 2 -10 8 -15 9 -15 2 0 -6 8 -16 18
-21 9 -6 12 -11 6 -11 -17 0 -42 33 -39 53 2 9 0 17 -5 17 -4 0 -10 9 -13 21
-4 16 -3 18 9 8 11 -9 14 -8 14 2 0 22 -17 42 -28 35 -5 -3 -12 7 -14 23 -5
34 0 53 13 45 5 -3 9 6 9 20 0 14 -4 26 -10 26 -5 0 -10 8 -10 18 0 14 2 15
10 2 8 -13 11 -12 24 5 8 11 18 17 22 13 4 -5 14 1 21 12 10 15 19 18 31 11
20 -10 102 -4 150 11 25 7 32 15 30 29 -2 11 -6 20 -10 20 -4 0 -37 9 -74 19
-47 14 -64 16 -61 7 3 -7 -3 -14 -14 -14 -10 -1 -19 2 -19 7 0 5 -7 7 -15 4
-24 -10 -17 6 8 16 16 8 10 9 -28 5 -46 -5 -48 -4 -31 10 11 8 24 15 29 15 5
0 4 7 -3 15 -6 8 -10 20 -8 27 3 7 -1 18 -9 23 -11 8 -11 15 -1 37 9 19 22 28
48 31 41 5 56 -1 41 -16 -6 -6 -11 -19 -11 -28 0 -10 -6 -19 -12 -22 -7 -2 -5
-3 5 -1 12 2 17 -2 13 -11 -2 -7 1 -21 8 -30 12 -16 13 -16 29 0 20 19 20 24
7 45 -6 10 -10 11 -10 3 0 -24 -15 -13 -16 12 -1 14 4 25 11 25 39 0 51 84 16
119 -12 12 -24 21 -28 22 -22 2 -33 18 -36 48 -2 18 -12 38 -21 43 -9 5 -14
13 -11 19 4 5 2 9 -3 9 -4 0 -15 -14 -23 -32 -14 -31 -43 -45 -55 -26 -6 9 2
32 32 88 16 31 45 50 51 33 2 -6 15 -24 29 -40 13 -15 24 -33 24 -40 0 -6 5
-15 12 -19 7 -5 8 -3 3 7 -8 12 -6 12 8 0 9 -7 14 -17 11 -22 -5 -8 9 -13 27
-11 4 1 5 -8 2 -18 -3 -11 0 -20 6 -20 11 0 15 18 12 53 -2 18 14 23 24 7 3
-5 11 -10 17 -10 7 0 6 6 -2 15 -16 19 -7 19 31 0 l30 -16 -7 28 c-3 15 -8 35
-10 43 -3 8 -2 12 1 8 4 -3 27 3 53 14 31 14 47 17 50 9 2 -6 24 -11 50 -11
31 0 42 3 33 9 -7 5 -11 13 -7 19 3 5 -6 18 -20 27 -19 12 -23 19 -14 25 8 5
7 9 -5 13 -10 5 -14 3 -9 -5 5 -8 -3 -9 -27 -5 l-34 7 25 -20 25 -20 -35 11
c-44 15 -61 29 -35 29 19 1 19 1 2 14 -18 14 -18 15 0 26 16 10 16 11 -5 7
-12 -3 -20 -1 -17 3 3 5 -5 11 -17 13 -13 3 4 3 37 1 33 -2 54 -1 48 2 -7 3
-13 15 -13 25 0 11 5 17 10 14 6 -4 8 -11 5 -16 -4 -5 3 -9 15 -9 26 0 19 12
-22 42 -17 12 -29 17 -25 11 8 -12 -17 -25 -28 -15 -14 14 -130 1 -142 -16
-20 -25 -16 -32 17 -32 34 0 38 -9 13 -32 -10 -9 -30 -30 -45 -47 -32 -36 -35
-37 -60 -14 -13 11 -18 12 -18 3 0 -10 -4 -9 -17 1 -9 8 -17 12 -18 9 -1 -3
-15 7 -31 22 -16 15 -41 38 -57 51 -19 16 -28 34 -31 62 -2 22 -7 49 -12 59
-5 13 -4 17 3 13 6 -4 14 1 18 10 3 10 2 19 -3 21 -6 2 -8 12 -5 22 3 11 1 20
-4 20 -11 0 -15 101 -4 118 4 7 24 14 43 15 21 1 34 6 31 13 -2 6 6 14 19 18
37 11 108 15 113 6 7 -12 35 -6 45 10 4 7 22 13 39 14 20 1 31 6 31 16 0 13 1
13 11 0 8 -11 12 -12 16 -2z m273 -243 c0 -5 -5 -3 -10 5 -5 8 -10 20 -10 25
0 6 5 3 10 -5 5 -8 10 -19 10 -25z m0 -42 c0 -7 -7 -10 -15 -7 -18 7 -20 -7
-3 -26 7 -8 4 -7 -7 3 -20 18 -20 18 -1 33 11 8 14 14 8 14 -7 0 -12 8 -12 17
0 15 2 14 15 -3 8 -10 15 -24 15 -31z m-55 -20 c-5 -10 -7 -22 -6 -26 1 -5 -3
-6 -8 -3 -5 4 -5 16 2 30 13 28 24 27 12 -1z m119 -48 c-4 -8 -1 -22 6 -30 11
-13 10 -14 -4 -9 -17 7 -23 54 -6 54 5 0 7 -7 4 -15z m86 -99 c0 -10 -30 0
-34 11 -4 11 -1 11 14 3 11 -6 20 -12 20 -14z m-480 -24 c0 -12 -28 -48 -33
-42 -8 8 11 50 23 50 5 0 10 -4 10 -8z m37 -54 c-3 -8 -6 -5 -6 6 -1 11 2 17
5 13 3 -3 4 -12 1 -19z m-310 6 c-3 -3 -12 -4 -19 -1 -8 3 -5 6 6 6 11 1 17
-2 13 -5z m421 -12 c2 -7 -5 -12 -17 -12 -14 0 -19 5 -14 15 6 17 25 15 31 -3z
m-382 -23 c5 -9 -36 -29 -61 -29 -16 0 -13 29 4 40 15 9 49 2 57 -11z m238
-18 c4 -5 -3 -7 -14 -4 -23 6 -26 13 -6 13 8 0 17 -4 20 -9z m400 -37 c3 -8 2
-12 -4 -9 -6 3 -10 10 -10 16 0 14 7 11 14 -7z m423 -1 c68 -32 68 -110 1
-232 -35 -64 -71 -111 -84 -111 -4 0 -34 69 -34 76 0 2 9 4 20 4 21 0 29 29 8
31 -9 0 -9 2 1 6 11 4 11 7 0 13 -9 6 -10 12 -2 22 8 9 6 18 -7 31 -16 17 -17
15 -12 -33 4 -48 4 -50 -21 -50 -14 0 -29 -4 -32 -10 -3 -5 -11 -10 -16 -10
-6 0 -1 16 11 35 16 26 20 43 14 63 -12 45 0 81 17 49 6 -9 15 -17 21 -17 6 0
1 11 -12 25 -24 25 -24 26 -35 5 -10 -18 -13 -19 -23 -8 -14 18 -4 88 13 88 6
0 29 9 51 20 48 24 76 25 121 3z m-1018 -113 c5 0 11 6 14 13 2 6 8 -1 12 -18
7 -25 37 -58 55 -60 17 -2 50 -17 50 -23 0 -4 -4 -13 -9 -20 -6 -10 -10 -10
-21 3 -8 9 -29 15 -59 15 -48 0 -74 -13 -84 -40 -4 -12 -6 -12 -6 2 -1 11 -7
15 -20 11 -23 -6 -57 39 -45 59 5 7 9 17 9 21 0 5 13 23 29 41 28 33 29 33 47
15 11 -11 23 -19 28 -19z m-14 30 c3 -5 1 -10 -4 -10 -6 0 -11 5 -11 10 0 6 2
10 4 10 3 0 8 -4 11 -10z m859 -106 c3 -9 -3 -27 -14 -41 -35 -45 -18 -69 30
-43 16 8 21 4 36 -35 13 -35 14 -48 5 -59 -18 -22 -63 -34 -89 -25 -22 9 -23
12 -16 76 4 38 6 85 6 106 0 29 3 37 18 37 10 0 21 -7 24 -16z m-984 -129
c-12 -25 -24 -44 -27 -41 -3 2 5 26 16 52 12 26 24 44 27 41 4 -3 -4 -27 -16
-52z m129 8 c11 -24 10 -29 -6 -40 -10 -7 -24 -17 -31 -24 -21 -18 -25 -3 -8
30 9 16 16 37 16 46 0 24 16 18 29 -12z m391 -333 c0 -5 -5 -10 -11 -10 -5 0
-7 5 -4 10 3 6 8 10 11 10 2 0 4 -4 4 -10z m27 -235 c8 -22 -6 -33 -17 -15
-13 20 -12 30 0 30 6 0 13 -7 17 -15z"/>
<path d="M1785 2760 c3 -5 8 -10 11 -10 2 0 4 5 4 10 0 6 -5 10 -11 10 -5 0
-7 -4 -4 -10z"/>
<path d="M1485 2740 c-8 -13 5 -13 25 0 13 8 13 10 -2 10 -9 0 -20 -4 -23 -10z"/>
<path d="M1615 2110 c3 -5 8 -10 11 -10 2 0 4 5 4 10 0 6 -5 10 -11 10 -5 0
-7 -4 -4 -10z"/>
<path d="M1763 2097 c0 -7 9 -14 20 -14 11 -1 18 -1 16 0 -2 2 -11 8 -20 15
-12 9 -16 9 -16 -1z"/>
<path d="M1640 1863 c0 -7 0 -16 0 -20 0 -5 9 -9 20 -9 11 -1 20 4 20 9 0 16
14 -2 40 -48 19 -34 21 -36 17 -12 -5 33 6 35 21 5 7 -15 11 -18 11 -8 1 25
-29 62 -46 56 -8 -3 -12 -2 -9 3 7 11 -16 20 -40 17 -11 -2 -22 2 -26 8 -5 8
-8 7 -8 -1z"/>
<path d="M1994 1782 c4 -7 2 -12 -3 -12 -6 0 -11 -4 -11 -10 0 -5 7 -10 15
-10 18 0 20 26 3 36 -7 4 -8 3 -4 -4z"/>
<path d="M1956 1755 c-3 -9 -6 -22 -5 -28 0 -7 5 -1 10 12 5 13 8 26 5 28 -2
2 -6 -3 -10 -12z"/>
<path d="M1870 1727 c0 -2 6 -10 14 -16 11 -9 16 -9 22 1 4 7 4 10 -1 6 -4 -4
-14 -3 -22 3 -7 6 -13 9 -13 6z"/>
<path d="M1477 1624 c-7 -7 4 -44 13 -44 16 0 51 38 40 45 -5 3 -10 1 -10 -5
0 -7 -6 -8 -19 -1 -10 6 -21 8 -24 5z"/>
<path d="M2477 2169 c18 -5 39 -19 48 -31 8 -13 15 -18 15 -12 0 22 -41 54
-68 53 -26 -1 -26 -1 5 -10z"/>
<path d="M2399 2153 c-13 -17 -13 -17 6 -3 11 8 22 16 24 17 2 2 0 3 -6 3 -6
0 -17 -8 -24 -17z"/>
<path d="M2365 2120 c-3 -5 -1 -10 4 -10 6 0 11 5 11 10 0 6 -2 10 -4 10 -3 0
-8 -4 -11 -10z"/>
<path d="M2476 2093 c-4 -11 -4 -26 -1 -34 7 -19 -20 -146 -35 -165 -7 -8 -8
-14 -2 -14 12 0 21 12 57 75 16 28 22 44 13 37 -13 -10 -14 -6 -10 37 5 55
-11 100 -22 64z"/>
<path d="M2350 1831 c0 -6 5 -13 10 -16 6 -3 10 -1 10 5 0 6 5 8 12 4 7 -4 8
-3 4 4 -9 14 -36 16 -36 3z"/>
<path d="M1990 1299 c0 -5 5 -7 10 -4 6 3 10 8 10 11 0 2 -4 4 -10 4 -5 0 -10
-5 -10 -11z"/>
<path d="M1928 1233 c7 -3 16 -2 19 1 4 3 -2 6 -13 5 -11 0 -14 -3 -6 -6z"/>
<path d="M1911 1204 c0 -11 3 -14 6 -6 3 7 2 16 -1 19 -3 4 -6 -2 -5 -13z"/>
<path d="M2978 1203 c12 -2 30 -2 40 0 9 3 -1 5 -23 4 -22 0 -30 -2 -17 -4z"/>
<path d="M1969 783 c18 -37 61 -84 61 -68 0 4 -13 23 -30 42 -16 18 -30 40
-30 48 0 8 -5 15 -10 15 -6 0 -2 -17 9 -37z"/>
<path d="M1900 755 c0 -29 -38 -115 -51 -115 -18 0 -8 -40 13 -51 17 -9 20 -9
15 3 -3 9 7 39 21 69 15 30 26 63 26 74 -1 11 -2 26 -3 33 -2 23 -21 12 -21
-13z"/>
<path d="M1623 730 c-18 -11 -33 -25 -33 -31 0 -8 7 -5 19 5 10 9 25 14 34 11
8 -4 18 -2 22 4 3 6 1 11 -5 11 -6 0 -8 5 -5 10 9 14 5 13 -32 -10z"/>
<path d="M1893 513 c-7 -3 -13 -9 -13 -15 0 -6 6 -6 15 2 8 7 15 8 15 3 0 -11
-50 -36 -57 -29 -6 6 -33 -19 -33 -29 0 -4 7 -4 16 -1 8 3 12 2 9 -4 -3 -6
-15 -10 -26 -10 -13 0 -19 -7 -19 -21 0 -11 -4 -17 -10 -14 -5 3 -14 4 -20 0
-11 -7 -2 -35 12 -35 6 0 5 6 -2 15 -9 11 -9 15 -1 15 6 0 14 -7 17 -15 4 -8
15 -15 25 -15 12 0 16 -5 13 -14 -3 -9 -12 -12 -21 -9 -12 5 -14 3 -8 -8 8
-12 6 -12 -9 0 -13 11 -20 11 -28 3 -9 -9 -9 -12 2 -12 8 0 4 -8 -10 -20 -13
-11 -19 -20 -14 -20 5 0 9 -11 9 -24 0 -29 -17 -29 -27 -1 -4 11 -6 -11 -3
-50 3 -38 5 -100 5 -137 0 -61 2 -68 20 -68 14 0 22 11 30 43 6 23 22 78 35
122 14 44 32 111 40 149 8 38 28 99 43 136 27 63 26 73 -5 63z m-19 -98 c-4
-8 -10 -15 -15 -15 -4 0 -6 7 -3 15 4 8 10 15 15 15 4 0 6 -7 3 -15z m-79
-125 c3 -5 1 -10 -4 -10 -6 0 -11 5 -11 10 0 6 2 10 4 10 3 0 8 -4 11 -10z"/>
<path d="M2602 33 c-17 -31 -16 -33 19 -33 25 0 29 3 20 13 -6 8 -7 18 -3 22
4 5 2 5 -5 2 -6 -4 -13 -1 -15 5 -3 8 -9 5 -16 -9z"/>
<path d="M2763 39 c-13 -5 -23 -13 -23 -18 0 -5 -10 -12 -22 -14 -13 -2 58 -5
156 -6 99 0 177 1 174 4 -11 11 -114 27 -183 28 -38 1 -72 5 -75 8 -3 4 -15 3
-27 -2z"/>
<path d="M670 22 c6 -13 14 -21 18 -18 3 4 -2 14 -12 24 -18 16 -18 16 -6 -6z"/>
</g>
</svg>
